<svg xmlns="http://www.w3.org/2000/svg" width="21.046" height="21" viewBox="0 0 21.046 21">
  <g id="cheers" transform="translate(0 -0.012)">
    <path id="Path_17" data-name="Path 17" d="M292.279.012a1.068,1.068,0,1,0,1.068,1.068A1.068,1.068,0,0,0,292.279.012Zm0,1.424a.356.356,0,1,1,.356-.356A.356.356,0,0,1,292.279,1.436Zm0,0" transform="translate(-278.253 0)" fill="#f3f3f3"/>
    <path id="Path_18" data-name="Path 18" d="M204.994,40.012a1.78,1.78,0,1,0,1.78,1.78A1.78,1.78,0,0,0,204.994,40.012Zm0,2.847a1.068,1.068,0,1,1,1.068-1.068A1.068,1.068,0,0,1,204.994,42.859Zm0,0" transform="translate(-194.173 -38.22)" fill="#f3f3f3"/>
    <path id="Path_19" data-name="Path 19" d="M100.643,56.008a1.424,1.424,0,1,0,1.424,1.424A1.424,1.424,0,0,0,100.643,56.008Zm0,2.136a.712.712,0,1,1,.712-.712A.712.712,0,0,1,100.643,58.144Zm0,0" transform="translate(-94.804 -53.505)" fill="#f3f3f3"/>
    <path id="Path_20" data-name="Path 20" d="M60.29.012A1.068,1.068,0,1,0,61.358,1.08,1.068,1.068,0,0,0,60.29.012Zm0,1.424a.356.356,0,1,1,.356-.356A.356.356,0,0,1,60.29,1.436Zm0,0" transform="translate(-56.587 0)" fill="#f3f3f3"/>
    <path id="Path_21" data-name="Path 21" d="M277.418,252.089l.673-.229,2.3,6.766-.674.229Zm0,0" transform="translate(-265.074 -240.642)" fill="#f3f3f3"/>
    <path id="Path_22" data-name="Path 22" d="M236.492,265.964l.673-.229,2.3,6.766-.674.229Zm0,0" transform="translate(-225.969 -253.9)" fill="#f3f3f3"/>
    <path id="Path_23" data-name="Path 23" d="M318.34,238.136l.674-.229,2.3,6.766-.674.229Zm0,0" transform="translate(-304.176 -227.31)" fill="#f3f3f3"/>
    <path id="Path_24" data-name="Path 24" d="M20.939,128.435l-1.682-4.945a2,2,0,0,0-2.544-1.253h0l-.965.328-.062-.184a2.554,2.554,0,0,0-4.449-.729,1.975,1.975,0,0,0-1.64.676,1.734,1.734,0,0,0-.235-.059,2.008,2.008,0,0,0-.793.021A2.554,2.554,0,0,0,4.287,123.7l-.034.191-1-.176a2.005,2.005,0,0,0-2.321,1.629h0l-.9,5.145a2.008,2.008,0,0,0,1.63,2.321l1,.175-.032.183a.905.905,0,0,0,.051,1.774l7.581,1.326a.888.888,0,0,0,.156.014.906.906,0,0,0,.821-.531.866.866,0,0,0,.477-.026l7.287-2.479a.906.906,0,0,0-.223-1.761l-.06-.175.964-.328a2.008,2.008,0,0,0,1.253-2.545Zm-5.811-5.487.125.367-2.449.833-.126-.367Zm-5.923.271a1.273,1.273,0,0,1,.466-.066.353.353,0,0,0,.32-.171h0a1.288,1.288,0,0,1,1.348-.6.356.356,0,0,0,.369-.161,1.821,1.821,0,0,1,.963-.763,1.845,1.845,0,0,1,2.19.826l-2.752.936a.356.356,0,0,0-.221.452l.531,1.561a.469.469,0,0,1-.887.3l-.178-.52a.356.356,0,1,0-.681.208l.007.022a.469.469,0,0,1-.888.3l-.356-1.041a.356.356,0,0,0-.451-.222l-.651.221a1.291,1.291,0,0,1,.869-1.286Zm-.2,2.223-.367.125-.124-.367.367-.125Zm-1.884-3.121h0a1.822,1.822,0,0,1,1.072.605.353.353,0,0,0,.063.053,2.017,2.017,0,0,0-.572.961l-2.6-.465a1.845,1.845,0,0,1,2.035-1.155Zm-2.195,1.853,2.7.483a1.97,1.97,0,0,0,.083.4l-2.854-.5Zm-3.146,7.933a1.3,1.3,0,0,1-1.05-1.5l.9-5.145a1.292,1.292,0,0,1,1.5-1.052h0l1,.175-.067.382-.733-.128a1.181,1.181,0,0,0-1.366.959v0l-.805,4.6a1.182,1.182,0,0,0,.961,1.366l.733.128-.067.382Zm2.161-6.434L2.976,131.2l-.733-.128a.469.469,0,0,1-.381-.542h0l.805-4.6a.47.47,0,0,1,.542-.381Zm6.67,9.735a.194.194,0,0,1-.225.157h0L2.806,134.24a.194.194,0,1,1,.054-.384l.013,0a.356.356,0,0,0,.412-.289l1.454-8.315,3.235.566,2.481,7.294-.29,1.658a.356.356,0,0,0,.29.412.194.194,0,0,1,.157.225Zm8.286-3.084a.193.193,0,0,1-.12.246h0L11.49,135.05a.194.194,0,0,1-.126-.367.356.356,0,0,0,.222-.452h0L8.868,126.24l.424-.144a1.176,1.176,0,0,0,1.82.1,1.181,1.181,0,0,0,1.982-1.185l-.063-.183,2.449-.834,2.719,7.991a.356.356,0,0,0,.452.223h0a.194.194,0,0,1,.245.121Zm-2.565-8.044.7-.24a.469.469,0,0,1,.595.292h0l1.505,4.424a.469.469,0,0,1-.293.595l-.7.24Zm3.125,6.025-.964.328-.126-.367.7-.24a1.182,1.182,0,0,0,.737-1.5L18.3,124.1a1.183,1.183,0,0,0-1.5-.737l-.7.24-.125-.367.967-.327a1.294,1.294,0,0,1,1.642.808l1.681,4.944a1.3,1.3,0,0,1-.808,1.641Zm0,0" transform="translate(0 -115.269)" fill="#f3f3f3"/>
    <path id="Path_25" data-name="Path 25" d="M142.125,278.126l1.231-7.04.7.123-1.232,7.04Zm0,0" transform="translate(-135.801 -259.013)" fill="#f3f3f3"/>
    <path id="Path_26" data-name="Path 26" d="M184.793,346.886l.69-4.187.7.116L185.5,347Zm0,0" transform="translate(-176.57 -327.44)" fill="#f3f3f3"/>
    <path id="Path_27" data-name="Path 27" d="M99.606,270.627l1.231-7.041.7.123-1.232,7.041Zm0,0" transform="translate(-95.173 -251.847)" fill="#f3f3f3"/>
  </g>
</svg>
