<svg xmlns="http://www.w3.org/2000/svg" width="25.727" height="25" viewBox="0 0 25.727 25">
  <g id="allotropy" transform="translate(0 0)">
    <path id="Path_14" data-name="Path 14" d="M24.019,10.792a1.714,1.714,0,0,0-.4.047L22.09,8.247A1.708,1.708,0,1,0,19.19,6.6H16.064a1.707,1.707,0,0,0-2.01-1.167L12.533,2.86A1.708,1.708,0,1,0,9.639,1.206H6.511A1.708,1.708,0,1,0,3.626,2.87L2.106,5.443a1.708,1.708,0,1,0,0,3.322l1.521,2.576a1.7,1.7,0,0,0,0,2.322L2.106,16.235a1.708,1.708,0,1,0,0,3.322l1.52,2.573a1.708,1.708,0,1,0,2.885,1.663H9.639a1.708,1.708,0,1,0,2.894-1.653l1.527-2.585A1.708,1.708,0,0,0,16.1,18.4h3.128A1.708,1.708,0,1,0,22.1,16.73l1.517-2.569a1.708,1.708,0,1,0,.4-3.37Zm-3.162,5.4a1.712,1.712,0,0,0-1.633,1.206H16.1a1.708,1.708,0,0,0-2.036-1.157l-1.526-2.583a1.705,1.705,0,0,0,0-2.3l1.526-2.583a1.707,1.707,0,0,0,2-1.161h3.13a1.707,1.707,0,0,0,2.034,1.154l1.53,2.59a1.705,1.705,0,0,0,0,2.3l-1.524,2.58a1.715,1.715,0,0,0-.375-.042Zm-9.585,5.4a1.711,1.711,0,0,0-1.633,1.206H6.511A1.707,1.707,0,0,0,4.5,21.627L2.971,19.046a1.705,1.705,0,0,0,0-2.3l1.523-2.578A1.707,1.707,0,0,0,6.512,13H9.638a1.707,1.707,0,0,0,2.031,1.162L13.2,16.751a1.705,1.705,0,0,0,0,2.291L11.667,21.63a1.709,1.709,0,0,0-.4-.047ZM2.971,5.955,4.5,3.374A1.707,1.707,0,0,0,6.511,2.211H9.639a1.707,1.707,0,0,0,2.029,1.159l1.515,2.565a1.7,1.7,0,0,0,0,2.334l-1.519,2.572A1.707,1.707,0,0,0,9.64,12H6.51A1.706,1.706,0,0,0,4.5,10.839L2.971,8.254a1.705,1.705,0,0,0,0-2.3Zm9,6.549a.7.7,0,1,1-.7-.7A.7.7,0,0,1,11.975,12.5Zm-7.8,0a.7.7,0,1,1,.7.7A.7.7,0,0,1,4.174,12.5ZM20.824,6.4a.7.7,0,1,1-.7.7.7.7,0,0,1,.7-.7Zm-5.69.7a.7.7,0,1,1-.7-.7A.7.7,0,0,1,15.134,7.1Zm-3.862-6.1a.7.7,0,1,1-.7.7A.7.7,0,0,1,11.272,1.005Zm-6.394,0a.7.7,0,1,1-.7.7A.7.7,0,0,1,4.878,1.005ZM1,7.1a.7.7,0,1,1,.7.7A.7.7,0,0,1,1,7.1ZM1,17.9a.7.7,0,1,1,.7.7A.7.7,0,0,1,1,17.9ZM4.878,24a.7.7,0,1,1,.7-.7A.7.7,0,0,1,4.878,24Zm6.394,0a.7.7,0,1,1,.7-.7A.7.7,0,0,1,11.272,24Zm3.191-5.4a.7.7,0,1,1,.7-.7A.7.7,0,0,1,14.463,18.6Zm6.394,0a.7.7,0,1,1,.7-.7A.7.7,0,0,1,20.857,18.6Zm3.162-5.4a.7.7,0,1,1,.7-.7A.7.7,0,0,1,24.019,13.2Zm0,0" fill="#f3f3f3"/>
    <path id="Path_15" data-name="Path 15" d="M345.38,177.817a.5.5,0,0,0-.435-.251h-1.731a.5.5,0,0,0,0,1h1.441l.936,1.621a.5.5,0,0,0,.87-.5Zm0,0" transform="translate(-325.49 -168.643)" fill="#f3f3f3"/>
    <path id="Path_16" data-name="Path 16" d="M306.861,177.566a.5.5,0,1,0,.355.147A.506.506,0,0,0,306.861,177.566Zm0,0" transform="translate(-290.965 -168.643)" fill="#f3f3f3"/>
  </g>
</svg>
