<svg xmlns="http://www.w3.org/2000/svg" width="29" height="29" viewBox="0 0 29 29">
  <g id="wheat" transform="translate(-0.001 0)">
    <g id="Group_2" data-name="Group 2" transform="translate(0.001 0)">
      <path id="Path_13" data-name="Path 13" d="M23.966,5.717h.053A5.175,5.175,0,0,0,29,.736c0-.081,0-.157,0-.224,0-.022,0-.044,0-.066a.454.454,0,0,0-.439-.439l-.065,0c-.067,0-.143-.006-.224,0a5.175,5.175,0,0,0-4.981,4.981c0,.032,0,.062,0,.093l-.894.894a4.8,4.8,0,0,0-1.407-3.431l-.022-.021.364-.364a.454.454,0,1,0-.642-.642L19.656,2.538a4.819,4.819,0,0,0-.306,6.47l-1.276,1.276A5.284,5.284,0,0,0,16.531,6.3l-.022-.021.364-.364a.454.454,0,1,0-.642-.642L15.2,6.305a5.3,5.3,0,0,0-.306,7.156l-1.484,1.484q.017-.22.017-.442a5.744,5.744,0,0,0-1.693-4.088l-.022-.021.364-.364a.454.454,0,0,0-.642-.642l-1.027,1.027a5.782,5.782,0,0,0-.309,7.843L8.743,19.616a6.377,6.377,0,0,0,.035-.661,6.225,6.225,0,0,0-1.835-4.431L6.92,14.5l.364-.364a.454.454,0,0,0-.642-.642L5.615,14.525a6.267,6.267,0,0,0-.31,8.529L.134,28.225a.454.454,0,1,0,.642.642L5.947,23.7a6.267,6.267,0,0,0,8.529-.31L15.5,22.359a.454.454,0,1,0-.642-.642l-.364.364-.021-.022a6.288,6.288,0,0,0-5.093-1.8l1.36-1.36a5.782,5.782,0,0,0,7.843-.309l1.027-1.027a.454.454,0,1,0-.642-.642l-.364.364-.021-.022a5.8,5.8,0,0,0-4.533-1.675L15.54,14.1A5.3,5.3,0,0,0,22.7,13.8l1.027-1.027a.454.454,0,0,0-.642-.642l-.364.364L22.7,12.47a5.286,5.286,0,0,0-3.976-1.546L19.993,9.65a4.818,4.818,0,0,0,6.47-.306l1.027-1.027a.454.454,0,0,0-.642-.642l-.364.364-.021-.022a4.8,4.8,0,0,0-3.426-1.411l.889-.889Zm4.115-4.8A4.265,4.265,0,0,1,24.2,4.8,4.265,4.265,0,0,1,28.082.919ZM6.279,22.765l-.022-.021a5.358,5.358,0,0,1,0-7.577l.021-.021.021.021a5.358,5.358,0,0,1,0,7.577Zm7.556-.064.021.021-.021.021a5.357,5.357,0,0,1-6.856.6,6.258,6.258,0,0,0,1.29-1.914A5.375,5.375,0,0,1,13.834,22.7ZM11.073,17.97l-.022-.021a4.874,4.874,0,0,1,0-6.892l.021-.021.021.021h0a4.881,4.881,0,0,1,1.126,5.138l-.005.014a4.858,4.858,0,0,1-1.121,1.74Zm6.871-.064.021.021-.021.021a4.876,4.876,0,0,1-6.166.6,5.769,5.769,0,0,0,1.215-1.832A4.891,4.891,0,0,1,17.944,17.906Zm-2.076-4.731-.022-.021a4.394,4.394,0,0,1,0-6.208l.021-.021.021.021a4.394,4.394,0,0,1,0,6.208Zm6.186-.064.021.021-.021.021a4.39,4.39,0,0,1-5.474.591A5.264,5.264,0,0,0,17.708,12,4.359,4.359,0,0,1,22.054,13.112ZM20.321,8.723,20.3,8.7a3.909,3.909,0,0,1,0-5.523l.021-.021.021.021a3.909,3.909,0,0,1,0,5.523Zm5.5-.064.021.021-.021.021a3.912,3.912,0,0,1-4.78.581,4.781,4.781,0,0,0,1.04-1.644A3.893,3.893,0,0,1,25.821,8.659Z" transform="translate(-0.001 0)" fill="#f3f3f3"/>
    </g>
  </g>
</svg>
