<svg xmlns="http://www.w3.org/2000/svg" width="212" height="80.098" viewBox="0 0 212 80.098">
  <g id="stage-1-title" transform="translate(-1024 -479)">
    <text id="primary_fermentation" data-name="primary fermentation" transform="translate(1153 555)" fill="#f3f3f3" font-size="18" font-family="Swansea"><tspan x="-82.53" y="0">primary fermentation</tspan></text>
    <g id="hop" transform="translate(1025 451.718)">
      <g id="Group_1" data-name="Group 1" transform="translate(0 84.282)">
        <path id="Path_12" data-name="Path 12" d="M35.974,101.4c.581-1.983-.815-4.163-1.525-5.1a.618.618,0,0,0,.068-.34c-.364-2.242-2.409-3.792-3.5-4.471.111-.148.179-.253.191-.272a.618.618,0,0,0-.241-.889,6.46,6.46,0,0,0-2.927-.661,11.076,11.076,0,0,0-6.225,2.39l-3.045-2.946V84.9a.618.618,0,1,0-1.235,0v4.181l-3.045,3.051a11.005,11.005,0,0,0-6.225-2.384,6.461,6.461,0,0,0-2.934.686.618.618,0,0,0-.246.838l.012.021.056.08c-1.093.673-3.174,2.23-3.539,4.465a.617.617,0,0,0,.043.34c-.71.97-2.118,3.156-1.5,5.132a.618.618,0,0,0,.469.432H.666c-.334,1.062-.729,3.014.278,4.422a.91.91,0,0,1,.074.062.618.618,0,0,0,.136.148,3.8,3.8,0,0,0,2.242.618,7.448,7.448,0,0,0,2.18-.364v.043a.618.618,0,0,0,.432.469,3.483,3.483,0,0,0,.988.136,7.525,7.525,0,0,0,4.119-1.668.618.618,0,0,0,.235.056h.1c2.242-.364,3.792-2.409,4.471-3.5l.272.191a.587.587,0,0,0,.883-.222c1.9-3.78-.655-7.769-1.7-9.153l2.8-2.779L20.954,92.9c-1.019,1.34-3.613,5.33-1.692,9.153a.618.618,0,0,0,.829.276.6.6,0,0,0,.061-.035l.08-.056c.667,1.081,2.23,3.168,4.5,3.533h.1a.618.618,0,0,0,.235-.056,7.443,7.443,0,0,0,4.119,1.668,3.509,3.509,0,0,0,.988-.136.618.618,0,0,0,.432-.469v-.043a7.449,7.449,0,0,0,2.18.364,3.8,3.8,0,0,0,2.242-.618.618.618,0,0,0,.136-.148.414.414,0,0,0,.074-.062c1.007-1.408.618-3.36.278-4.422h.043A.618.618,0,0,0,35.974,101.4ZM2.654,96.924a4.73,4.73,0,0,0,1.952.451h.222a4.14,4.14,0,0,0,0,.457.618.618,0,0,0,.334.5,3.09,3.09,0,0,0,.327.136,5.434,5.434,0,0,0-.618,1.7,6.393,6.393,0,0,1-3.706.451A6.352,6.352,0,0,1,2.654,96.924ZM5.39,105.41c-.889.315-2.5.661-3.5,0-.667-.994-.321-2.612,0-3.5h.655a6.64,6.64,0,0,0,2.415-.4,1.019,1.019,0,0,0,.074.284.618.618,0,0,0,.222.309.617.617,0,0,0,.241.154,1.188,1.188,0,0,1,.284.068A7.336,7.336,0,0,0,5.39,105.41ZM5.038,96.1V96.1a3.465,3.465,0,0,1-2.118-.426,6.64,6.64,0,0,1,3-3.323,10.218,10.218,0,0,0,.809.8A8.232,8.232,0,0,0,5.038,96.1ZM7.713,93.9a6.436,6.436,0,0,0,1.853.852,5.355,5.355,0,0,0-.278,2.155,4.323,4.323,0,0,1-3.224.42A6.107,6.107,0,0,1,7.713,93.9Zm-1.581,7.251a3.705,3.705,0,0,1,.648-2.47h.364a5.558,5.558,0,0,0,1.7-.272,5.491,5.491,0,0,0-.259,2.063A3.706,3.706,0,0,1,6.131,101.155Zm.562,4.9a6.152,6.152,0,0,1,.451-3.706,5.372,5.372,0,0,0,1.7-.618,3.092,3.092,0,0,0,.136.334.618.618,0,0,0,.5.334H9.93a4.65,4.65,0,0,0,.438,2.174A5.615,5.615,0,0,1,6.694,106.053Zm3.267-4.83a4.249,4.249,0,0,1,.358-3.088,5.559,5.559,0,0,0,2.39-.229,6.287,6.287,0,0,0,.723,1.637A6.138,6.138,0,0,1,9.961,101.223Zm1.66,3.148a3.452,3.452,0,0,1-.425-2.11,8.239,8.239,0,0,0,2.965-1.711,9.817,9.817,0,0,0,.778.846A6.836,6.836,0,0,1,11.621,104.371Zm4.59-3.488a.617.617,0,0,0-.167-.148,6.3,6.3,0,0,1-2.254-3.706.618.618,0,0,0-.871-.494A5.706,5.706,0,0,1,10.955,97a1.974,1.974,0,0,1-.414-.037,4.769,4.769,0,0,1,.426-2.378.618.618,0,0,0-.494-.871,6.471,6.471,0,0,1-3.9-2.47,5.317,5.317,0,0,1,1.68-.266c2.89,0,5.528,2.155,5.836,2.415C14.432,93.768,17.4,97.406,16.211,100.883Zm3.848-.1c-1.149-3.489,1.853-7.158,2.149-7.516a9.58,9.58,0,0,1,5.83-2.365,5.317,5.317,0,0,1,1.68.266.619.619,0,0,0-.148.173,6.33,6.33,0,0,1-3.706,2.254.618.618,0,0,0-.494.871,4.78,4.78,0,0,1,.426,2.378,1.984,1.984,0,0,1-.414.037,5.706,5.706,0,0,1-1.964-.469.618.618,0,0,0-.871.494A6.614,6.614,0,0,1,20.058,100.778Zm4.453,3.706a6.64,6.64,0,0,1-3.323-3,10.218,10.218,0,0,0,.8-.809,8.226,8.226,0,0,0,2.952,1.7A3.459,3.459,0,0,1,24.511,104.484Zm-1.773-4.817a6.412,6.412,0,0,0,.852-1.853,5.817,5.817,0,0,0,2.149.266,4.323,4.323,0,0,1,.432,3.242A6.19,6.19,0,0,1,22.739,99.667Zm6.695,6.472a5.965,5.965,0,0,1-3.675-1.42,4.651,4.651,0,0,0,.438-2.18h.457a.618.618,0,0,0,.5-.334,2.952,2.952,0,0,0,.136-.327,5.378,5.378,0,0,0,1.7.618A6.041,6.041,0,0,1,29.434,106.139Zm.562-4.9a3.705,3.705,0,0,1-2.47-.648,5.491,5.491,0,0,0-.259-2.063,5.558,5.558,0,0,0,1.7.272h.364A3.706,3.706,0,0,1,30,101.241Zm-3.032-4.169a5.028,5.028,0,0,0-.253-2.4,6.292,6.292,0,0,0,1.649-.723,6.18,6.18,0,0,1,1.686,3.471A4.262,4.262,0,0,1,26.963,97.073Zm2.424-3.85a9.981,9.981,0,0,0,.825-.782,6.657,6.657,0,0,1,3,3.323,3.416,3.416,0,0,1-2.118.426A8.244,8.244,0,0,0,29.387,93.222Zm4.851,12.262-.006.006c-.994.667-2.606.321-3.5,0a7.343,7.343,0,0,0-.383-3.088.952.952,0,0,0,.284-.068.917.917,0,0,0,.469-.469,1.206,1.206,0,0,1,.074-.284,6.634,6.634,0,0,0,2.415.4h.655C34.56,102.872,34.906,104.484,34.239,105.484Zm.655-4.8-.006.006a6.147,6.147,0,0,1-3.706-.451,5.443,5.443,0,0,0-.618-1.7,2.855,2.855,0,0,0,.327-.136.618.618,0,0,0,.334-.5,4.179,4.179,0,0,0,0-.457h.222a4.737,4.737,0,0,0,1.952-.451A5.629,5.629,0,0,1,34.893,100.679Z" transform="translate(0 -84.282)" fill="#f3f3f3"/>
      </g>
    </g>
    <text id="Step_One" data-name="Step One" transform="translate(1088 519)" fill="#f3f3f3" font-size="40" font-family="Backslash-Regular, Backslash"><tspan x="-63.32" y="0">Step One</tspan></text>
  </g>
</svg>
